# xmcd
#
# Track frame offsets: 
#        150
#        12825
#        26332
#        39282
#        51797
#        63630
#        75480
#        88082
#        100320
#        111354
#        123065
#        134622
#        145750
#        158959
#        169792
#        180632
#        191782
#        202205
#        212762
#        225420
#        238395
#        250542
#
# Disc length: 3485 seconds
#
# Revision: 0
# Processed by: cddbd v1.5.1PL0 Copyright (c) Steve Scherf et al.
# Submitted via: ExactAudioCopy v0.95a5
#
DISCID=300d9b16
DTITLE=Various Artist - Black Boy Shine and Black Ivory King 1936-1937
DYEAR=1900
DGENRE=
TTITLE0=Black Boy Shine - Wrong Doing Woman Blues
TTITLE1=Black Boy Shine - Sugarland Blues
TTITLE2=Black Boy Shine - Dog House Blues
TTITLE3=Black Boy Shine - Advice Blues
TTITLE4=Black Boy Shine - Back Home Blues
TTITLE5=Black Boy Shine - Brown House Blues
TTITLE6=Black Boy Shine - Crazy Woman Blues
TTITLE7=Black Boy Shine - Married Man Blues
TTITLE8=Black Boy Shine - Ice Pick and Pistol Woman Blues
TTITLE9=Black Boy Shine - Coal Woman Blues
TTITLE10=Black Boy Shine - Business Woman Blues
TTITLE11=Black Boy Shine - Grey with Worry Blues
TTITLE12=Black Boy Shine - Sail On Little Girl No. 3
TTITLE13=Black Boy Shine - Lonesome Home Blues
TTITLE14=Black Boy Shine - Bed and Breakfast Blues
TTITLE15=Black Boy Shine - Gamblin' Jinx Blues
TTITLE16=Black Boy Shine - Hobo Blues
TTITLE17=Black Boy Shine - Bad Luck Town Blues
TTITLE18=Black Ivory King - The Flying Crow
TTITLE19=Black Ivory King - Gingham Dress (Alexander Blues)
TTITLE20=Black Ivory King - Match Box Blues
TTITLE21=Black Ivory King - Working for the PWA
EXTD=
EXTT0=
EXTT1=
EXTT2=
EXTT3=
EXTT4=
EXTT5=
EXTT6=
EXTT7=
EXTT8=
EXTT9=
EXTT10=
EXTT11=
EXTT12=
EXTT13=
EXTT14=
EXTT15=
EXTT16=
EXTT17=
EXTT18=
EXTT19=
EXTT20=
EXTT21=
PLAYORDER=
